# xmcd
#
# Track frame offsets: 
#        150
#        8057
#        18912
#        39097
#        56967
#        69795
#        86460
#        126120
#        143670
#        156162
#        171402
#
# Disc length: 2448 seconds
#
# Revision: 0
# Processed by: cddbd v1.5.2PL0 Copyright (c) Steve Scherf et al.
# Submitted via: ExactAudioCopy v0.95b3
#
DISCID=82098e0b
DTITLE=The Rolling Stones  - Ultra Rare Trax, Vol. 09  FLAC
DYEAR=1900
DGENRE=
TTITLE0=Don't Lie To Me
TTITLE1=Looking Tired
TTITLE2=Honky Tonk Woman
TTITLE3=Street Fighting Man
TTITLE4=Citadel
TTITLE5=Love In Vain
TTITLE6=Sympathy For The Devil
TTITLE7=Love In Vain
TTITLE8=Around
TTITLE9=Leather Jacket
TTITLE10=The Fly
EXTD=
EXTT0=
EXTT1=
EXTT2=
EXTT3=
EXTT4=
EXTT5=
EXTT6=
EXTT7=
EXTT8=
EXTT9=
EXTT10=
PLAYORDER=
